# xmcd
#
# Track frame offsets: 
#        150
#        12812
#        34907
#        51130
#        64722
#        93830
#        128825
#        146037
#        172795
#        196390
#        209877
#
# Disc length: 3150 seconds
#
# Revision: 4
# Processed by: cddbd v1.5.1PL0 Copyright (c) Steve Scherf et al.
# Submitted via: ExactAudioCopy v0.95a4
#
DISCID=990c4c0b
DTITLE=Muddy Waters - In Concert
DYEAR=1993
DGENRE=Blues
TTITLE0=Baby Please Don't Go
TTITLE1=Soon Forgotten
TTITLE2=Corrina, Corrina
TTITLE3=Hoochie Coochie Man
TTITLE4=Howlin' Wolf
TTITLE5=Floyd's Blues
TTITLE6=Blow Wind Blow
TTITLE7=Caldonia
TTITLE8=Screamin' and Cryin'
TTITLE9=I Got My Mojo Working
TTITLE10=Garbage Man
EXTD=Part of the "Revue" collection\nREV424
EXTT0=
EXTT1=
EXTT2=
EXTT3=
EXTT4=
EXTT5=
EXTT6=
EXTT7=
EXTT8=
EXTT9=
EXTT10=
PLAYORDER=
